<?xml version="1.0" standalone="no"?>
<!DOCTYPE svg PUBLIC "-//W3C//DTD SVG 20010904//EN"
 "http://www.w3.org/TR/2001/REC-SVG-20010904/DTD/svg10.dtd">
<svg version="1.0" xmlns="http://www.w3.org/2000/svg"
 width="430.000000pt" height="430.000000pt" viewBox="0 0 430.000000 430.000000"
 preserveAspectRatio="xMidYMid meet">
<metadata>
Created by potrace 1.14, written by Peter Selinger 2001-2017
</metadata>
<g transform="translate(0.000000,430.000000) scale(0.100000,-0.100000)"
fill="#000000" stroke="none">
<path d="M1 3363 c1 -239 5 -382 10 -358 4 22 8 56 9 75 0 19 13 71 29 115 22
64 26 85 17 104 -8 19 -6 26 15 42 13 10 18 19 12 19 -15 0 -18 60 -4 60 15 0
22 32 10 47 -9 11 -7 19 9 36 17 18 19 26 10 35 -9 9 -6 17 11 36 13 14 26 25
30 24 27 -3 41 5 41 23 0 17 -5 20 -25 17 -21 -4 -25 -1 -25 17 0 12 9 30 20
40 19 18 19 18 -3 41 -19 21 -32 24 -94 24 l-73 0 1 -397z"/>
<path d="M1640 3751 c0 -9 27 -190 55 -376 9 -55 20 -136 26 -180 9 -65 16
-84 36 -102 14 -12 29 -41 35 -65 9 -43 32 -78 51 -78 6 0 6 5 -1 13 -5 6 -13
41 -17 77 -4 36 -9 74 -11 85 -13 67 -16 125 -6 125 11 0 26 -29 23 -44 -1 -5
4 -4 12 2 11 9 17 8 29 -6 17 -19 30 -97 21 -130 -6 -25 -23 -30 -23 -8 0 8
-5 18 -11 22 -8 4 -9 -4 -4 -27 11 -50 8 -141 -5 -149 -6 -4 -12 -28 -14 -53
-1 -29 -10 -55 -22 -68 -83 -93 -81 -91 -103 -77 -12 7 -21 20 -21 30 0 9 -4
20 -10 23 -5 3 -10 17 -10 31 0 13 -4 24 -9 24 -13 0 -25 85 -15 101 12 19 14
59 3 59 -5 0 -9 -13 -9 -30 0 -16 -4 -30 -9 -30 -15 0 -23 39 -16 77 3 20 2
40 -4 47 -18 22 5 69 42 86 l32 14 -39 8 c-47 10 -62 0 -71 -48 -14 -75 -37
-98 -74 -75 -9 6 -10 11 -2 15 16 10 13 26 -5 26 -14 0 -14 2 1 16 11 11 14
24 10 38 -15 45 -17 76 -6 76 6 0 11 9 11 20 0 11 7 20 15 20 18 0 19 12 3 28
-19 19 -26 15 -54 -28 -24 -36 -27 -52 -29 -135 -2 -51 -5 -98 -9 -103 -3 -6
-3 -24 0 -41 5 -24 10 -29 19 -21 10 9 13 2 13 -27 0 -114 26 -310 43 -328 5
-5 9 -17 9 -26 0 -17 49 -34 51 -18 2 10 2 11 16 64 6 22 14 61 18 88 4 31 11
47 21 47 8 0 14 -7 14 -15 0 -8 9 -29 20 -47 11 -18 20 -40 20 -48 0 -23 65
-153 86 -172 11 -10 31 -28 47 -40 25 -21 30 -36 51 -163 13 -77 27 -165 31
-195 11 -103 45 -259 57 -266 4 -3 8 -12 8 -20 0 -8 -5 -12 -11 -9 -7 5 -8 -5
-3 -32 4 -21 10 -39 14 -41 4 -2 6 -11 4 -20 -3 -9 3 -60 12 -112 9 -52 19
-128 23 -169 3 -46 11 -76 19 -79 13 -4 15 4 12 60 -1 33 2 39 25 48 20 7 37
7 61 -2 27 -9 47 -9 96 1 35 7 99 12 143 12 64 -1 85 2 104 17 20 16 22 23 14
48 -7 21 -18 30 -38 34 -15 3 -33 14 -39 25 -6 11 -14 22 -18 26 -5 3 -11 27
-14 55 -7 48 -6 48 12 32 11 -9 34 -31 53 -48 32 -28 70 -42 56 -20 -3 6 -1
10 4 10 6 0 11 5 11 10 0 6 -7 10 -16 10 -8 0 -12 5 -9 10 3 6 15 10 26 10 28
0 24 11 -20 54 -30 30 -44 36 -61 31 -19 -6 -21 -4 -15 14 4 14 -1 26 -19 42
-15 13 -26 31 -26 42 0 12 -5 17 -14 14 -9 -4 -19 5 -26 24 -7 16 -16 29 -21
29 -15 0 -10 22 8 35 15 11 16 15 3 31 -12 13 -12 18 -2 21 6 3 12 12 11 21 0
11 -2 12 -6 5 -9 -25 -31 -13 -57 32 -15 24 -25 48 -24 52 1 4 -3 19 -9 33
-39 96 -72 226 -73 290 0 19 -7 48 -15 64 -20 38 -19 72 3 94 20 20 13 45 -21
70 -18 14 -18 26 -1 85 3 9 1 17 -5 17 -6 0 -11 -7 -11 -15 0 -9 -9 -15 -25
-15 -29 0 -34 28 -11 71 13 26 14 68 1 88 -3 6 -2 11 4 11 5 0 11 -5 13 -12 3
-7 17 12 32 43 15 30 34 63 42 73 14 19 14 19 28 1 13 -18 13 -18 24 1 10 18
12 18 44 2 47 -23 68 -29 68 -18 0 6 11 10 25 10 16 0 25 6 25 15 0 9 10 15
26 15 19 0 25 4 21 14 -4 11 -1 13 11 9 31 -12 41 -37 42 -100 0 -53 -3 -63
-20 -68 -11 -3 -29 -4 -39 0 -11 3 -22 1 -26 -5 -3 -5 -15 -10 -26 -10 -33 0
-18 -32 21 -46 19 -7 32 -13 27 -13 -4 -1 -1 -11 8 -24 8 -13 12 -27 8 -30
-10 -11 -73 -8 -73 3 0 6 -15 10 -32 10 -30 -1 -31 -2 -15 -14 23 -18 22 -29
-3 -21 -11 3 -29 3 -41 0 -17 -6 -18 -9 -7 -22 9 -11 23 -14 55 -9 32 4 43 2
43 -8 0 -7 7 -19 15 -26 12 -10 13 -15 3 -21 -10 -6 -9 -13 1 -32 10 -20 10
-32 -4 -75 -10 -30 -23 -52 -31 -52 -18 0 -18 -189 0 -240 20 -55 148 -116
183 -88 23 18 43 1 43 -37 0 -32 2 -35 31 -35 30 0 31 -1 24 -40 -6 -33 -4
-40 10 -40 9 0 23 7 32 15 13 14 17 13 39 -7 13 -13 24 -30 24 -40 0 -22 37
-12 45 13 7 20 45 27 45 8 0 -6 -13 -24 -30 -41 -33 -33 -37 -46 -16 -54 22
-8 7 -34 -19 -34 -13 0 -26 -6 -28 -12 -3 -7 -6 -4 -6 8 -1 11 -7 29 -15 39
-13 18 -14 18 -25 -2 -13 -25 -5 -54 12 -47 13 4 53 -82 49 -103 -2 -7 2 -13
8 -13 5 0 10 5 10 10 0 17 22 11 47 -12 18 -17 26 -19 35 -10 20 20 33 14 66
-34 33 -46 34 -64 3 -64 -25 0 -33 -11 -19 -27 8 -11 7 -12 -6 -7 -9 3 -16 1
-16 -4 0 -6 9 -14 20 -17 26 -8 16 -25 -16 -25 -16 0 -28 -8 -33 -22 l-9 -23
-6 25 c-3 14 -7 39 -10 57 -6 43 -15 56 -37 50 -10 -3 -22 -1 -25 5 -4 5 -23
6 -48 2 -22 -4 -50 -8 -61 -9 -11 -1 -23 -3 -27 -4 -5 0 -8 -13 -8 -28 0 -29
53 -123 69 -123 5 0 14 -14 21 -30 10 -24 10 -37 1 -56 -10 -23 -9 -25 16 -22
24 3 27 0 27 -31 1 -38 26 -57 26 -19 0 13 4 29 9 37 15 23 2 42 -20 30 -15
-8 -21 -6 -25 6 -4 9 -2 21 5 28 6 6 11 20 11 31 1 20 2 19 24 -6 13 -14 32
-28 42 -31 16 -4 17 -5 2 -6 -13 -1 -17 -8 -16 -27 3 -30 34 -52 51 -35 18 18
34 13 41 -14 8 -32 25 -33 19 -1 -4 18 0 26 17 31 12 4 27 2 33 -4 16 -16 37
-13 37 4 0 9 12 18 29 21 24 5 29 11 29 33 -2 38 18 78 44 92 13 7 28 19 34
27 7 10 77 22 240 43 126 15 258 32 294 38 36 5 97 14 135 20 98 15 433 51
473 51 l32 0 0 1040 0 1041 -347 -2 c-198 0 -356 -5 -366 -11 -20 -10 -12 -32
9 -24 8 3 14 1 14 -4 0 -6 6 -10 13 -10 8 0 20 -11 27 -25 11 -20 16 -23 28
-12 13 11 14 9 1 -11 -9 -14 -10 -25 -4 -30 6 -4 17 -16 25 -27 15 -20 15 -20
-8 -1 -22 19 -22 19 -16 1 5 -13 4 -16 -4 -11 -17 10 -15 2 10 -40 20 -34 22
-35 35 -18 7 10 13 23 13 28 0 6 -7 3 -15 -7 -13 -18 -14 -18 -24 2 -14 26
-14 38 1 23 9 -9 16 -8 30 5 18 16 18 16 12 -2 -5 -13 -4 -16 4 -11 16 10 14
-5 -3 -28 -22 -29 -18 -42 5 -21 21 19 42 13 22 -7 -7 -7 -12 -17 -12 -22 0
-6 7 0 16 12 13 18 19 21 30 11 8 -6 14 -19 13 -28 0 -10 -4 -7 -11 9 -6 14
-12 20 -15 14 -2 -7 5 -26 16 -44 11 -18 18 -38 17 -44 -2 -6 -1 -7 2 -3 2 5
17 -11 33 -35 16 -23 29 -39 29 -35 0 4 -11 24 -25 44 -13 20 -21 41 -18 46 4
6 10 1 14 -11 5 -12 14 -22 20 -22 8 0 7 5 -2 17 -12 15 -12 16 4 10 10 -4 17
-2 17 6 1 7 12 -1 25 -18 14 -16 25 -24 25 -17 0 18 23 -5 33 -33 6 -16 3 -15
-13 5 -20 24 -21 24 -15 3 3 -13 2 -30 -3 -39 -8 -15 -11 -14 -26 7 -9 13 -16
19 -16 14 1 -18 29 -47 39 -41 5 4 15 -2 20 -13 16 -29 13 -39 -4 -17 -19 25
-19 16 -1 -18 l14 -27 6 26 c4 15 11 23 17 19 8 -4 7 -9 -2 -15 -7 -4 -10 -11
-6 -15 10 -10 -13 -35 -27 -27 -6 3 -6 0 2 -8 14 -15 16 -43 2 -34 -6 4 -7 -1
-3 -11 4 -11 8 -13 11 -6 2 7 8 10 13 6 12 -7 11 3 -1 27 -6 10 -7 19 -2 19 5
0 14 10 20 23 7 12 11 15 11 7 -2 -23 12 -60 22 -60 12 0 11 7 -2 33 -9 19 -8
20 3 5 7 -9 19 -25 26 -35 11 -16 12 -16 7 7 -6 24 -5 24 9 6 9 -11 12 -22 8
-25 -12 -9 -9 -53 6 -76 11 -18 12 -17 7 10 l-6 30 17 -30 c10 -18 19 -25 22
-17 2 7 -2 19 -8 27 -8 10 -9 15 -2 15 6 0 14 -9 17 -20 3 -11 13 -20 21 -20
12 0 12 -4 4 -21 -7 -11 -9 -26 -7 -33 3 -7 -1 -13 -9 -13 -10 0 -12 7 -8 20
4 13 2 17 -5 13 -6 -4 -11 -2 -11 5 0 9 -3 9 -14 0 -11 -9 -16 -5 -26 18 -6
16 -19 36 -29 45 -15 14 -17 13 -17 -4 0 -10 5 -18 10 -17 6 1 19 -15 29 -36
12 -25 24 -36 33 -33 15 6 18 -3 8 -28 -5 -13 -9 -12 -25 7 l-18 22 -1 -25 c0
-20 2 -22 10 -10 8 13 10 12 12 -5 3 -40 5 -50 13 -67 4 -10 11 -16 15 -13 5
3 12 0 16 -6 4 -7 3 -9 -3 -6 -11 7 -33 -55 -33 -91 0 -11 -4 -24 -10 -27 -5
-3 -10 -11 -10 -18 0 -6 7 -2 16 9 15 18 15 18 8 -5 -4 -17 -3 -21 6 -16 6 4
9 17 6 30 -3 13 -2 34 2 46 l9 23 5 -22 c4 -14 2 -20 -4 -16 -6 4 -8 -1 -4
-14 8 -25 -3 -74 -15 -67 -4 3 -12 -2 -17 -12 -15 -28 -31 -94 -22 -88 5 3 10
-1 13 -7 2 -7 12 3 21 22 10 21 15 26 12 12 -2 -13 0 -19 6 -16 5 3 7 17 3 31
-4 17 -2 23 6 18 8 -5 9 0 4 16 -5 19 -2 18 15 -8 12 -18 19 -38 17 -45 -3 -8
-6 -6 -6 5 -1 9 -5 17 -11 17 -13 0 -13 -6 0 -30 7 -14 5 -19 -10 -23 -12 -3
-21 -17 -25 -40 -5 -23 -14 -37 -26 -40 -10 -3 -19 -13 -18 -24 0 -10 3 -13 6
-5 9 22 22 12 32 -25 12 -43 4 -93 -11 -71 -7 9 -8 4 -4 -14 6 -28 -7 -39 -18
-15 -3 6 -3 0 0 -14 5 -23 2 -27 -24 -32 -16 -3 -38 -4 -49 -1 -12 3 -24 1
-27 -5 -4 -6 -18 -11 -32 -11 -13 0 -33 -9 -43 -19 -11 -11 -21 -18 -23 -16
-9 9 -67 12 -79 4 -25 -15 4 -33 31 -19 12 6 24 9 28 6 11 -12 -9 -19 -85 -32
-43 -8 -87 -16 -98 -18 -11 -2 -28 -4 -37 -5 -10 0 -18 -7 -18 -13 0 -12 -105
-32 -512 -95 -110 -17 -136 -14 -102 12 28 23 63 36 119 46 41 7 33 7 -38 4
-96 -4 -140 6 -135 31 2 9 -14 34 -34 55 -21 22 -38 46 -38 55 0 17 -19 51
-43 76 -10 10 -33 42 -51 71 -19 29 -40 58 -48 65 -8 6 -21 37 -28 67 -12 51
-14 54 -27 35 -16 -23 -32 -25 -68 -8 -16 7 -25 19 -25 33 0 13 -7 39 -15 58
-22 53 -18 66 10 34 21 -23 25 -25 25 -10 0 10 -7 28 -15 39 -11 16 -12 29 -5
55 14 46 13 49 -10 49 -17 0 -20 7 -20 46 0 27 -4 43 -10 39 -5 -3 -10 -18
-10 -33 -1 -24 -2 -25 -11 -9 -11 20 8 107 23 107 4 0 8 14 8 30 0 17 5 30 10
30 6 0 10 -7 10 -15 0 -9 7 -18 15 -21 8 -4 15 -12 15 -19 0 -19 34 -24 55 -9
25 19 15 88 -19 123 -14 15 -26 32 -26 39 0 6 -10 16 -22 23 -19 10 -20 9 -14
-7 14 -36 18 -81 8 -88 -14 -8 -21 16 -24 81 -3 44 -7 54 -30 68 -16 9 -28 22
-28 29 0 8 -12 16 -26 19 -19 3 -33 -3 -57 -29 -29 -29 -38 -33 -92 -35 -37
-2 -79 4 -110 15 -27 10 -77 22 -109 27 -33 6 -72 17 -87 26 -27 16 -28 20
-32 112 -2 53 -9 132 -15 176 -8 52 -8 81 -2 83 6 2 10 12 10 23 0 17 -8 19
-89 19 -86 0 -88 -1 -85 -22 2 -13 15 -98 28 -189 14 -91 30 -178 36 -193 l11
-29 -38 6 c-21 4 -42 2 -50 -4 -9 -8 -14 -8 -17 2 -7 19 -33 186 -46 289 -18
145 -16 140 -61 140 -21 0 -39 -4 -39 -9z m2040 -51 c0 -5 -4 -10 -10 -10 -5
0 -10 5 -10 10 0 6 5 10 10 10 6 0 10 -4 10 -10z m86 -57 c-3 -4 -6 -1 -6 6 0
7 -4 9 -10 6 -6 -4 -7 1 -3 11 6 15 7 15 15 -1 6 -9 7 -19 4 -22z m41 -42 c0
-11 -5 -18 -9 -15 -4 3 -5 11 -1 19 7 21 12 19 10 -4z m26 -121 c-5 -19 -23
-29 -23 -12 0 7 20 32 26 32 1 0 0 -9 -3 -20z m-1854 -40 c0 -23 -1 -23 -9 -5
-5 11 -9 29 -9 40 -1 17 1 17 9 5 5 -8 9 -26 9 -40z m8 -72 c-3 -8 -6 -5 -6 6
-1 11 2 17 5 13 3 -3 4 -12 1 -19z m1993 -53 c0 -5 -5 -3 -10 5 -5 8 -10 20
-10 25 0 6 5 3 10 -5 5 -8 10 -19 10 -25z m-1958 -63 c59 -55 64 -79 13 -55
-19 9 -35 21 -35 27 0 6 -21 32 -47 59 -48 49 -48 49 -13 32 19 -10 56 -38 82
-63z m1988 68 c0 -5 -2 -10 -4 -10 -3 0 -8 5 -11 10 -3 6 -1 10 4 10 6 0 11
-4 11 -10z m50 -72 c0 -6 -7 -5 -15 2 -8 7 -15 17 -15 22 0 6 7 5 15 -2 8 -7
15 -17 15 -22z m59 -54 c12 -19 16 -32 11 -29 -11 7 -43 65 -36 65 2 0 13 -16
25 -36z m15 20 c3 -8 2 -12 -4 -9 -6 3 -10 10 -10 16 0 14 7 11 14 -7z m-1609
-65 c4 -5 -1 -20 -12 -31 -14 -16 -15 -22 -5 -25 10 -4 9 -9 -4 -24 -20 -23
-38 -25 -30 -4 3 8 1 15 -4 15 -15 0 -32 39 -25 60 5 15 15 20 40 20 19 0 37
-5 40 -11z m-188 -5 c-3 -3 -12 -4 -19 -1 -8 3 -5 6 6 6 11 1 17 -2 13 -5z
m1844 -71 c-12 -20 -14 -14 -5 12 4 9 9 14 11 11 3 -2 0 -13 -6 -23z m-2285
-80 c-10 -10 -19 5 -10 18 6 11 8 11 12 0 2 -7 1 -15 -2 -18z m2267 -53 c3
-11 1 -18 -4 -14 -5 3 -9 12 -9 20 0 20 7 17 13 -6z m-1626 -47 c-3 -10 -5 -4
-5 12 0 17 2 24 5 18 2 -7 2 -21 0 -30z m19 -191 c6 -54 10 -62 34 -62 10 0
22 -5 26 -11 3 -6 15 -9 25 -6 11 3 19 1 19 -4 0 -5 -3 -9 -8 -9 -11 0 -35
-59 -29 -73 5 -14 -13 -94 -26 -114 -5 -7 -6 -17 -3 -22 8 -13 -40 -53 -59
-49 -26 5 -30 -21 -5 -30 21 -8 21 -9 5 -25 -9 -9 -25 -17 -35 -17 -10 0 -20
-9 -23 -20 -14 -54 -71 8 -83 90 -4 25 -10 52 -14 60 -18 38 5 35 45 -6 25
-24 49 -44 55 -44 18 0 11 28 -15 55 -52 57 -56 131 -10 199 14 20 25 41 25
46 0 6 7 10 15 10 8 0 15 -9 15 -20 0 -11 7 -23 16 -27 20 -7 38 19 20 29 -7
4 -13 23 -14 43 -1 19 -6 44 -12 56 -7 11 -9 28 -5 37 10 25 36 -30 41 -86z
m-651 68 c3 -6 -1 -13 -9 -16 -19 -7 -20 -14 -1 -38 12 -16 17 -17 30 -6 8 7
15 21 15 32 0 17 2 18 15 8 9 -7 14 -19 11 -25 -2 -7 4 -31 15 -55 11 -24 17
-51 14 -62 -5 -15 -1 -18 26 -18 39 0 58 -23 59 -72 0 -20 4 -38 10 -40 5 -1
12 -34 16 -72 6 -58 5 -68 -7 -60 -15 10 -20 11 -47 13 -10 0 -29 19 -44 42
-15 22 -29 35 -33 30 -3 -6 -13 -11 -21 -11 -12 0 -15 9 -13 34 4 47 -4 52
-39 27 -41 -29 -54 -27 -42 5 6 14 17 32 25 40 16 16 20 46 8 57 -8 9 -53 -32
-53 -48 0 -6 -6 -19 -13 -29 -12 -17 -15 -17 -30 -2 -21 22 -40 91 -31 118 3
11 28 44 55 71 27 28 49 59 49 69 0 19 25 25 35 8z m126 -72 c27 -33 23 -50
-7 -30 -13 8 -29 52 -19 52 4 0 15 -10 26 -22z m2079 15 c-1 -5 -7 -19 -15
-33 -10 -18 -14 -20 -15 -8 0 23 11 48 21 48 5 0 9 -3 9 -7z m67 -85 c-3 -7
-5 -2 -5 12 0 14 2 19 5 13 2 -7 2 -19 0 -25z m-47 -52 c-5 -15 -8 -39 -5 -54
5 -27 5 -27 -5 -3 -7 17 -7 34 1 58 6 19 13 32 15 30 3 -2 0 -16 -6 -31z
m-2104 -342 c12 -42 74 -440 82 -526 4 -53 1 -57 -30 -28 -12 11 -28 20 -35
20 -7 0 -13 11 -13 24 0 13 -6 54 -14 92 -8 38 -20 103 -26 144 -6 41 -15 100
-20 130 -5 30 -12 87 -16 126 l-6 72 33 -7 c28 -6 35 -13 45 -47z m1979 -22
c9 -11 16 -11 37 -1 22 10 29 9 43 -4 15 -15 14 -17 -12 -23 -15 -3 -48 -12
-72 -20 -25 -8 -66 -14 -92 -14 -46 0 -248 -35 -258 -45 -8 -9 123 -5 164 5
21 5 90 12 152 16 101 6 113 5 113 -10 0 -12 -10 -16 -37 -16 -21 0 -45 -5
-53 -10 -13 -9 -13 -11 0 -20 8 -5 21 -10 29 -10 11 0 11 -3 1 -15 -20 -24
-12 -28 70 -35 21 -1 18 -4 -17 -17 -41 -14 -89 -63 -76 -77 3 -3 -3 -6 -15
-6 -23 0 -65 -34 -54 -44 3 -3 0 -6 -7 -6 -7 0 -10 -4 -7 -8 3 -5 -30 -14 -72
-21 -222 -36 -266 -42 -367 -56 -60 -8 -155 -21 -209 -30 -55 -8 -114 -15
-131 -15 l-32 0 -1 66 -1 65 27 -3 c25 -3 27 0 26 32 0 19 -2 57 -5 85 l-4 49
35 7 c19 4 68 10 109 14 111 10 133 25 27 20 -48 -3 -93 -8 -99 -12 -6 -4 -29
-10 -52 -13 -22 -4 -44 -8 -50 -10 -5 -1 -26 -2 -46 -1 -28 1 -38 6 -42 22 -9
32 13 59 48 59 16 0 49 5 73 10 23 6 82 15 130 20 48 5 116 14 152 20 114 18
304 40 351 40 25 0 49 4 55 9 9 10 72 18 129 17 17 0 35 -6 40 -14z m-1354
-81 c-8 -5 -12 -18 -8 -30 4 -18 2 -19 -14 -10 -33 17 -23 49 15 49 16 0 18
-2 7 -9z m69 -66 c0 -16 -6 -25 -15 -25 -28 0 -18 40 13 49 1 1 2 -10 2 -24z
m70 -30 c-7 -9 -15 -13 -18 -10 -3 2 1 11 8 20 7 9 15 13 18 10 3 -2 -1 -11
-8 -20z m305 -113 c-9 -9 -33 20 -40 50 -6 22 -3 27 17 30 20 3 23 -2 26 -36
2 -21 1 -41 -3 -44z m-315 -76 c0 -3 -4 -8 -10 -11 -5 -3 -10 -1 -10 4 0 6 5
11 10 11 6 0 10 -2 10 -4z m-653 -78 c-3 -8 -6 -5 -6 6 -1 11 2 17 5 13 3 -3
4 -12 1 -19z m771 -376 c3 -9 -2 -13 -14 -10 -9 1 -19 9 -22 16 -3 9 2 13 14
10 9 -1 19 -9 22 -16z"/>
<path d="M2545 2450 c4 -6 11 -8 16 -5 14 9 11 15 -7 15 -8 0 -12 -5 -9 -10z"/>
<path d="M3528 2083 c7 -3 16 -2 19 1 4 3 -2 6 -13 5 -11 0 -14 -3 -6 -6z"/>
<path d="M3453 2073 c9 -2 23 -2 30 0 6 3 -1 5 -18 5 -16 0 -22 -2 -12 -5z"/>
<path d="M3980 1960 c0 -5 5 -10 10 -10 6 0 10 5 10 10 0 6 -4 10 -10 10 -5 0
-10 -4 -10 -10z"/>
<path d="M2031 3698 c10 -35 19 -74 19 -88 0 -53 15 -125 24 -112 4 7 5 28 2
45 -3 18 -8 61 -11 97 -8 98 -14 120 -35 120 -18 0 -17 -2 1 -62z"/>
<path d="M2115 3743 c4 -10 11 -35 15 -56 12 -60 20 -55 20 11 0 56 -2 62 -21
62 -16 0 -19 -4 -14 -17z"/>
<path d="M2242 3735 c0 -16 2 -22 5 -12 2 9 2 23 0 30 -3 6 -5 -1 -5 -18z"/>
<path d="M3528 3753 c6 -2 18 -2 25 0 6 3 1 5 -13 5 -14 0 -19 -2 -12 -5z"/>
<path d="M1991 3684 c0 -11 3 -14 6 -6 3 7 2 16 -1 19 -3 4 -6 -2 -5 -13z"/>
<path d="M2250 3664 c0 -21 5 -46 11 -54 7 -11 8 -1 3 35 -8 62 -14 70 -14 19z"/>
<path d="M3610 3679 c-13 -9 -13 -10 2 -6 9 3 19 1 22 -6 2 -7 5 -4 5 6 1 20
-7 21 -29 6z"/>
<path d="M3650 3563 c0 -6 8 -17 18 -24 16 -13 16 -13 2 6 -8 11 -16 22 -17
24 -2 2 -3 0 -3 -6z"/>
<path d="M2271 3534 c0 -11 3 -14 6 -6 3 7 2 16 -1 19 -3 4 -6 -2 -5 -13z"/>
<path d="M3636 3537 c3 -10 9 -15 12 -12 3 3 0 11 -7 18 -10 9 -11 8 -5 -6z"/>
<path d="M2072 3460 c0 -14 2 -19 5 -12 2 6 2 18 0 25 -3 6 -5 1 -5 -13z"/>
<path d="M3782 3446 c7 -8 15 -12 17 -11 5 6 -10 25 -20 25 -5 0 -4 -6 3 -14z"/>
<path d="M3890 3425 c0 -2 11 -21 25 -41 14 -20 25 -30 25 -21 0 9 -7 22 -15
31 -8 8 -15 19 -15 25 0 6 -4 11 -10 11 -5 0 -10 -2 -10 -5z"/>
<path d="M3876 3307 c3 -10 9 -15 12 -12 3 3 0 11 -7 18 -10 9 -11 8 -5 -6z"/>
<path d="M1560 3271 c0 -6 5 -13 10 -16 6 -3 10 1 10 9 0 9 -4 16 -10 16 -5 0
-10 -4 -10 -9z"/>
<path d="M1660 3256 c0 -8 4 -17 9 -20 11 -7 33 18 24 27 -12 12 -33 7 -33 -7z"/>
<path d="M4040 3192 c0 -7 7 -20 15 -28 19 -20 20 -4 0 22 -9 12 -14 14 -15 6z"/>
<path d="M1840 3154 c0 -8 5 -12 10 -9 6 3 10 10 10 16 0 5 -4 9 -10 9 -5 0
-10 -7 -10 -16z"/>
<path d="M3940 3161 c0 -6 4 -13 10 -16 6 -3 7 1 4 9 -7 18 -14 21 -14 7z"/>
<path d="M3980 3101 c0 -6 4 -13 10 -16 6 -3 7 1 4 9 -7 18 -14 21 -14 7z"/>
<path d="M4055 2989 c-4 -6 -5 -12 -2 -15 2 -3 7 2 10 11 7 17 1 20 -8 4z"/>
<path d="M4071 2965 c-1 -5 8 -23 19 -40 14 -21 20 -25 20 -12 0 9 -4 17 -8
17 -5 0 -14 10 -20 23 -6 12 -11 18 -11 12z"/>
<path d="M0 2940 c0 -11 2 -20 4 -20 2 0 6 9 9 20 3 11 1 20 -4 20 -5 0 -9 -9
-9 -20z"/>
<path d="M2191 2934 c0 -11 3 -14 6 -6 3 7 2 16 -1 19 -3 4 -6 -2 -5 -13z"/>
<path d="M4066 2920 c3 -14 10 -26 14 -28 4 -1 5 -15 3 -30 -3 -26 -3 -26 7
-4 7 17 5 30 -11 55 -17 27 -19 28 -13 7z"/>
<path d="M4050 2898 c0 -9 5 -20 10 -23 13 -8 13 5 0 25 -8 13 -10 13 -10 -2z"/>
<path d="M2198 2889 c-10 -5 -18 -16 -18 -24 0 -7 -12 -27 -26 -44 -22 -26
-23 -32 -10 -37 9 -3 23 -4 31 0 8 3 28 0 45 -6 27 -9 34 -7 56 13 31 29 31
53 -1 84 -26 27 -49 31 -77 14z"/>
<path d="M4050 2839 c0 -5 5 -7 10 -4 6 3 10 8 10 11 0 2 -4 4 -10 4 -5 0 -10
-5 -10 -11z"/>
<path d="M2666 2804 c-9 -22 -8 -24 9 -24 8 0 15 9 15 20 0 24 -15 27 -24 4z"/>
<path d="M4056 2785 c-9 -26 -7 -32 5 -12 6 10 9 21 6 23 -2 3 -7 -2 -11 -11z"/>
<path d="M2675 2750 c3 -5 10 -10 16 -10 5 0 9 5 9 10 0 6 -7 10 -16 10 -8 0
-12 -4 -9 -10z"/>
<path d="M0 2138 l0 -575 32 0 c56 -2 98 -15 98 -30 0 -8 -11 -24 -25 -37 -20
-18 -33 -22 -65 -19 l-41 4 2 -435 c2 -334 5 -436 15 -436 14 0 24 -23 24 -56
l0 -24 180 0 c153 0 180 2 180 15 0 9 -9 15 -25 15 -21 0 -24 3 -17 16 14 25
2 64 -19 64 -13 0 -19 7 -19 21 0 27 -24 51 -44 43 -18 -7 -20 4 -6 26 5 9 5
19 -1 26 -7 8 -6 14 1 19 19 12 11 45 -15 55 -17 6 -25 17 -25 32 0 18 2 20
10 8 7 -12 11 -10 19 10 5 14 10 20 10 13 1 -14 83 -15 131 -1 101 30 193 73
267 125 17 13 35 23 38 23 11 0 78 73 109 119 26 37 30 54 34 125 l4 84 -31
23 c-24 17 -31 30 -31 55 0 20 -6 37 -17 42 -9 6 -14 16 -10 25 4 12 -4 17
-36 22 -23 4 -54 18 -68 32 -26 24 -32 25 -171 26 -141 2 -146 3 -186 30 -22
16 -45 42 -51 58 -6 17 -19 43 -31 58 -11 16 -20 36 -20 44 0 8 -11 18 -25 21
-21 5 -24 10 -19 35 6 27 2 32 -35 50 -35 18 -43 28 -55 74 -8 28 -14 68 -12
87 2 19 4 47 5 61 0 14 15 44 32 65 22 28 29 47 27 66 -3 20 0 29 12 33 9 3
39 26 66 50 33 30 54 43 66 39 19 -6 25 10 8 21 -6 4 -8 11 -4 16 9 15 -5 61
-17 53 -6 -3 -18 1 -27 9 -9 9 -29 20 -45 26 -15 6 -27 17 -27 25 0 22 -17 28
-40 14 -30 -18 -46 6 -54 81 -5 43 -13 64 -31 81 l-25 23 0 -575z m230 -1238
c13 -8 13 -10 -2 -10 -9 0 -20 5 -23 10 -8 13 5 13 25 0z"/>
<path d="M4097 2626 c-4 -10 -7 -25 -6 -34 0 -11 4 -9 10 7 5 13 8 29 6 35 -2
5 -6 2 -10 -8z"/>
<path d="M2316 2605 c4 -8 8 -15 10 -15 2 0 4 7 4 15 0 8 -4 15 -10 15 -5 0
-7 -7 -4 -15z"/>
<path d="M4080 2510 c0 -5 5 -10 10 -10 6 0 10 5 10 10 0 6 -4 10 -10 10 -5 0
-10 -4 -10 -10z"/>
<path d="M4070 2480 c0 -5 5 -10 11 -10 5 0 7 5 4 10 -3 6 -8 10 -11 10 -2 0
-4 -4 -4 -10z"/>
<path d="M4040 2470 c0 -5 5 -10 10 -10 6 0 10 5 10 10 0 6 -4 10 -10 10 -5 0
-10 -4 -10 -10z"/>
<path d="M4020 2421 c0 -5 5 -13 10 -16 6 -3 10 -2 10 4 0 5 -4 13 -10 16 -5
3 -10 2 -10 -4z"/>
<path d="M3663 2293 c-13 -2 -23 -9 -23 -14 0 -12 8 -11 55 6 30 10 34 14 15
13 -14 0 -35 -3 -47 -5z"/>
<path d="M3590 2280 c-9 -6 -10 -10 -3 -10 6 0 15 5 18 10 8 12 4 12 -15 0z"/>
<path d="M3528 2273 c7 -3 16 -2 19 1 4 3 -2 6 -13 5 -11 0 -14 -3 -6 -6z"/>
<path d="M2587 1993 c-4 -3 -7 -12 -7 -20 0 -15 26 -18 34 -4 7 11 -18 33 -27
24z"/>
<path d="M2640 1960 c0 -5 5 -10 10 -10 6 0 10 5 10 10 0 6 -4 10 -10 10 -5 0
-10 -4 -10 -10z"/>
<path d="M2742 1706 c7 -8 15 -12 17 -11 5 6 -10 25 -20 25 -5 0 -4 -6 3 -14z"/>
<path d="M2530 1610 c0 -5 15 -10 33 -10 24 0 28 3 17 10 -20 13 -50 13 -50 0z"/>
<path d="M4225 1560 c-16 -4 -69 -13 -117 -20 -85 -12 -86 -12 -85 -38 1 -18
-3 -27 -13 -27 -8 0 -18 -4 -22 -9 -4 -6 -13 -5 -21 3 -9 7 -56 15 -106 18
-74 5 -92 3 -106 -10 -15 -15 -14 -17 11 -23 14 -4 51 -4 82 -1 32 3 73 2 92
-2 l35 -7 -35 -17 c-19 -8 -46 -18 -60 -21 -14 -3 2 -3 35 -1 43 3 64 0 76
-11 15 -13 18 -13 33 2 15 14 30 15 114 9 53 -4 103 -12 110 -17 8 -7 12 -7
12 1 0 6 9 11 20 11 18 0 20 7 20 85 0 94 -1 95 -75 75z m-65 -76 c0 -2 -9 -4
-21 -4 -11 0 -18 4 -14 10 5 8 35 3 35 -6z m-290 -12 c0 -5 -18 -9 -41 -10
-24 -1 -38 2 -34 8 7 12 75 13 75 2z m213 1 c-7 -2 -19 -2 -25 0 -7 3 -2 5 12
5 14 0 19 -2 13 -5z m35 -39 c-9 -9 -21 -13 -27 -9 -16 10 -3 25 22 25 20 0
20 -1 5 -16z"/>
<path d="M3795 1420 c8 -13 35 -13 55 0 11 7 5 10 -23 10 -23 0 -36 -4 -32
-10z"/>
<path d="M2305 1400 c-3 -5 -1 -10 4 -10 6 0 11 5 11 10 0 6 -2 10 -4 10 -3 0
-8 -4 -11 -10z"/>
<path d="M3800 1374 c0 -3 6 -12 14 -20 17 -16 66 -19 66 -4 0 6 -9 10 -19 10
-11 0 -23 5 -26 10 -7 11 -35 14 -35 4z"/>
<path d="M3938 1373 c12 -2 30 -2 40 0 9 3 -1 5 -23 4 -22 0 -30 -2 -17 -4z"/>
<path d="M4250 1350 c-12 -8 -9 -10 13 -10 15 0 27 5 27 10 0 13 -20 13 -40 0z"/>
</g>
</svg>
